<?xml version="1.0" encoding="iso-8859-1"?>
<!-- Uploaded to: SVG Repo, www.svgrepo.com, Generator: SVG Repo Mixer Tools -->
<svg fill="#000000" height="800px" width="800px" version="1.1" id="Layer_1" xmlns="http://www.w3.org/2000/svg" xmlns:xlink="http://www.w3.org/1999/xlink" 
	 viewBox="0 0 433.479 433.479" xml:space="preserve">
<g>
	<g>
		<path d="M240.644,198.207c-2.93-2.929-7.678-2.929-10.607,0l-37.201,37.202c-2.929,2.929-2.929,7.678,0,10.606
			c1.464,1.464,3.384,2.197,5.303,2.197c1.919,0,3.839-0.732,5.303-2.197l37.202-37.202
			C243.573,205.884,243.573,201.136,240.644,198.207z"/>
	</g>
</g>
<g>
	<g>
		<path d="M240.642,235.408c-1.399-1.399-3.33-2.2-5.3-2.2c-1.979,0-3.91,0.8-5.31,2.2c-1.391,1.4-2.19,3.33-2.19,5.3
			c0,1.98,0.8,3.91,2.19,5.31c1.399,1.39,3.33,2.19,5.31,2.19c1.97,0,3.9-0.8,5.3-2.19c1.4-1.4,2.2-3.34,2.2-5.31
			C242.842,238.738,242.042,236.809,240.642,235.408z"/>
	</g>
</g>
<g>
	<g>
		<path d="M203.443,198.21c-1.39-1.4-3.33-2.2-5.3-2.2c-1.98,0-3.91,0.8-5.31,2.2c-1.39,1.39-2.19,3.33-2.19,5.3
			c0,1.97,0.8,3.91,2.19,5.3c1.399,1.399,3.33,2.2,5.31,2.2c1.97,0,3.9-0.8,5.3-2.2c1.39-1.39,2.2-3.32,2.2-5.3
			C205.643,201.53,204.833,199.6,203.443,198.21z"/>
	</g>
</g>
<g>
	<g>
		<path d="M286.681,222.111c0-2.642,0.895-5.895,1.843-9.338c1.763-6.408,3.762-13.671,0.828-20.744
			c-3.036-7.323-9.723-11.08-15.622-14.394c-2.997-1.684-5.828-3.274-7.535-4.981c-1.706-1.706-3.297-4.537-4.98-7.534
			c-3.314-5.899-7.07-12.585-14.393-15.622c-7.071-2.932-14.336-0.934-20.743,0.829c-3.444,0.947-6.697,1.842-9.339,1.842
			c-2.642,0-5.895-0.895-9.338-1.842c-6.408-1.764-13.672-3.763-20.744-0.829c-7.322,3.037-11.079,9.723-14.394,15.623
			c-1.684,2.997-3.274,5.827-4.98,7.534c-1.707,1.707-4.538,3.297-7.534,4.98c-5.899,3.314-12.586,7.071-15.623,14.394
			c-2.933,7.072-0.935,14.335,0.829,20.744c0.947,3.443,1.842,6.696,1.842,9.338c0,2.643-0.895,5.896-1.842,9.339
			c-1.763,6.408-3.761,13.67-0.829,20.743c3.037,7.323,9.724,11.08,15.623,14.394c2.997,1.684,5.828,3.274,7.534,4.98
			c1.706,1.706,3.297,4.537,4.98,7.534c3.314,5.899,7.071,12.586,14.394,15.622c2.606,1.081,5.238,1.492,7.844,1.492
			c4.465,0,8.853-1.208,12.899-2.321c3.443-0.947,6.696-1.842,9.338-1.842c2.642,0,5.895,0.895,9.339,1.843
			c6.408,1.763,13.669,3.762,20.743,0.828c7.322-3.036,11.079-9.723,14.394-15.623c1.685-2.997,3.274-5.828,4.98-7.534
			c1.707-1.707,4.537-3.297,7.534-4.98c5.9-3.314,12.588-7.071,15.623-14.393c2.934-7.072,0.935-14.335-0.828-20.743
			C287.577,228.006,286.681,224.753,286.681,222.111z M275.497,246.449c-1.05,2.531-5.149,4.834-9.114,7.062
			c-3.749,2.106-7.627,4.285-10.793,7.451c-3.166,3.166-5.344,7.043-7.451,10.793c-2.228,3.964-4.53,8.064-7.063,9.114
			c-2.311,0.96-6.738-0.258-11.018-1.436c-4.055-1.116-8.65-2.38-13.319-2.38c-4.668,0-9.263,1.264-13.318,2.38
			c-4.279,1.177-8.703,2.396-11.019,1.435c-2.531-1.049-4.834-5.149-7.062-9.113c-2.107-3.75-4.286-7.627-7.452-10.793
			c-3.166-3.166-7.043-5.345-10.793-7.452c-3.964-2.227-8.064-4.531-9.114-7.062c-0.959-2.314,0.258-6.739,1.435-11.018
			c1.116-4.055,2.38-8.65,2.38-13.318c0-4.668-1.264-9.263-2.38-13.318c-1.177-4.279-2.395-8.704-1.436-11.018
			c1.05-2.531,5.149-4.834,9.114-7.062c3.75-2.107,7.627-4.286,10.794-7.452c3.166-3.166,5.344-7.043,7.451-10.793
			c2.228-3.965,4.531-8.065,7.063-9.115c2.316-0.959,6.739,0.258,11.018,1.436c4.055,1.116,8.65,2.38,13.318,2.38
			c4.668,0,9.263-1.264,13.318-2.38c4.281-1.178,8.708-2.394,11.019-1.436c2.531,1.05,4.834,5.149,7.062,9.113
			c2.106,3.75,4.285,7.628,7.451,10.794c3.167,3.166,7.044,5.345,10.794,7.452c3.965,2.227,8.064,4.531,9.114,7.063
			c0.96,2.314-0.258,6.739-1.436,11.018c-1.115,4.055-2.38,8.65-2.38,13.318c0,4.668,1.266,9.263,2.381,13.318
			C275.239,239.709,276.457,244.134,275.497,246.449z"/>
	</g>
</g>
<g>
	<g>
		<path d="M164.409,102.465c-4.142,0-7.5,3.358-7.5,7.5v4.627h-28.592V34.908c0-4.142-3.358-7.5-7.5-7.5c-4.142,0-7.5,3.358-7.5,7.5
			v87.184c0,4.142,3.358,7.5,7.5,7.5h43.592c4.142,0,7.5-3.358,7.5-7.5v-12.127C171.909,105.823,168.551,102.465,164.409,102.465z"
			/>
	</g>
</g>
<g>
	<g>
		<path d="M317.984,92.796c-4.143,0-7.5,3.358-7.5,7.5c0,7.883-6.413,14.296-14.296,14.296s-14.296-6.413-14.296-14.296V56.703
			c0-7.883,6.413-14.296,14.296-14.296s14.296,6.413,14.296,14.296c0,4.142,3.357,7.5,7.5,7.5s7.5-3.358,7.5-7.5
			c0-16.154-13.142-29.296-29.296-29.296s-29.296,13.142-29.296,29.296v43.592c0,16.155,13.142,29.297,29.296,29.297
			s29.296-13.142,29.296-29.296C325.484,96.154,322.127,92.796,317.984,92.796z"/>
	</g>
</g>
<g>
	<g>
		<path d="M81.206,69.014c3.694-4.404,5.922-10.08,5.922-16.265c0-13.974-11.368-25.342-25.342-25.342H44.441
			c-4.142,0-7.5,3.358-7.5,7.5v28.184H35.65c-4.142,0-7.5,3.358-7.5,7.5c0,4.142,3.359,7.501,7.501,7.501h1.291v44
			c0,4.142,3.358,7.5,7.5,7.5h17.842c18.334,0,33.25-14.916,33.25-33.25C95.534,85.032,89.859,75.024,81.206,69.014z M61.785,42.408
			c5.703,0,10.342,4.64,10.342,10.342c0,5.702-4.639,10.342-10.342,10.342h-9.844c0,0,0-20.684,0-20.684H61.785z M62.283,114.592
			H51.941v-36.5h10.342c10.063,0,18.25,8.187,18.25,18.25S72.346,114.592,62.283,114.592z"/>
	</g>
</g>
<g>
	<g>
		<path d="M216.469,27.972c-15.998,0-29.014,13.016-29.014,29.014v64.542c0,4.141,3.358,7.499,7.5,7.499c4.142,0,7.5-3.358,7.5-7.5
			V99.972h28.028v21.556c0,4.142,3.357,7.5,7.5,7.5s7.5-3.358,7.5-7.5V56.986C245.483,40.988,232.467,27.972,216.469,27.972z
			 M230.483,84.972h-28.028V56.986c0-7.727,6.287-14.014,14.014-14.014s14.014,6.287,14.014,14.014V84.972z"/>
	</g>
</g>
<g>
	<g>
		<path d="M403.082,116.738l-39.515-38.785l31.427-38.288c2.628-3.202,2.163-7.928-1.038-10.556
			c-3.2-2.626-7.928-2.164-10.556,1.039l-22.483,27.392V34.908c0-4.142-3.357-7.5-7.5-7.5s-7.5,3.358-7.5,7.5v87.184
			c0,4.142,3.358,7.5,7.5,7.5c4.143,0,7.5-3.358,7.5-7.5V96.371l31.657,31.073c1.46,1.433,3.357,2.147,5.254,2.147
			c1.942,0,3.884-0.75,5.353-2.246C406.082,124.389,406.038,119.639,403.082,116.738z"/>
	</g>
</g>
<g>
	<g>
		<path d="M83.204,314.631H45.536c-4.142,0-7.5,3.358-7.5,7.5v75.335c0,4.142,3.358,7.5,7.5,7.5c4.142,0,7.5-3.358,7.5-7.5v-25.5
			h13.908c4.142,0,7.5-3.358,7.5-7.5c0-4.142-3.358-7.5-7.5-7.5H53.036v-27.335h22.668v2.979c0,4.142,3.358,7.5,7.5,7.5
			c4.142,0,7.5-3.358,7.5-7.5v-10.479C90.704,317.988,87.346,314.631,83.204,314.631z"/>
	</g>
</g>
<g>
	<g>
		<path d="M181.443,314.631c-4.142,0-7.5,3.358-7.5,7.5v75.335c0,4.142,3.358,7.5,7.5,7.5c4.142,0,7.5-3.358,7.5-7.5v-75.335
			C188.943,317.988,185.585,314.631,181.443,314.631z"/>
	</g>
</g>
<g>
	<g>
		<path d="M406.444,317.579c-3.662-1.934-8.199-0.531-10.134,3.131l-19.367,36.688l-19.367-36.688
			c-1.935-3.663-6.47-5.065-10.134-3.131c-3.663,1.934-5.065,6.471-3.132,10.134l25.133,47.61v22.142c0,4.142,3.357,7.5,7.5,7.5
			s7.5-3.358,7.5-7.5v-22.141l25.133-47.611C411.509,324.051,410.107,319.514,406.444,317.579z"/>
	</g>
</g>
<g>
	<g>
		<path d="M225.055,314.631h-7.795c-4.142,0-7.5,3.358-7.5,7.5v75.335c0,4.142,3.358,7.5,7.5,7.5h7.795
			c20.607,0,37.373-16.766,37.373-37.373v-15.589C262.428,331.397,245.663,314.631,225.055,314.631z M247.428,367.593
			c0,12.336-10.036,22.373-22.373,22.373h-0.295v-60.336h0.295c12.337,0,22.373,10.037,22.373,22.373V367.593z"/>
	</g>
</g>
<g>
	<g>
		<path d="M145.356,361.83c4.997-5.008,8.091-11.917,8.091-19.533c-0.001-15.255-12.412-27.667-27.668-27.667h-10.236
			c-4.142,0-7.5,3.358-7.5,7.5v32.835h-0.096c-4.142,0-7.5,3.358-7.5,7.5c0,4.142,3.358,7.5,7.5,7.5h0.096v27.5
			c0,4.142,3.358,7.5,7.5,7.5c4.142,0,7.5-3.358,7.5-7.5v-27.5h4.936c5.772,0,10.468,4.696,10.468,10.469v17.031
			c0,4.142,3.358,7.5,7.5,7.5c4.142,0,7.5-3.358,7.5-7.5v-17.031C153.447,373.101,150.332,366.483,145.356,361.83z M125.779,354.967
			h-2.736v-25.336h2.736c6.985,0,12.667,5.683,12.667,12.667C138.446,349.283,132.764,354.967,125.779,354.967z"/>
	</g>
</g>
<g>
	<g>
		<path d="M306.625,316.712c-14.386,0-26.09,11.704-26.09,26.09v55.77c0,4.142,3.357,7.5,7.5,7.5s7.5-3.358,7.5-7.5v-17.607h22.181
			v17.607c0,4.142,3.357,7.5,7.5,7.5s7.5-3.358,7.5-7.5v-55.77C332.716,328.416,321.012,316.712,306.625,316.712z M317.717,365.967
			h-22.181v-23.163c0-6.115,4.975-11.09,11.09-11.09s11.091,4.975,11.091,11.09V365.967z"/>
	</g>
</g>
<g>
	<g>
		<path d="M425.979,214.611h-94.495c-4.143,0-7.5,3.358-7.5,7.5c0,4.142,3.357,7.5,7.5,7.5h94.495c4.143,0,7.5-3.358,7.5-7.5
			C433.479,217.969,430.122,214.611,425.979,214.611z"/>
	</g>
</g>
<g>
	<g>
		<path d="M367.482,177.113h-49.497c-4.143,0-7.5,3.358-7.5,7.5c0,4.142,3.357,7.5,7.5,7.5h49.497c4.143,0,7.5-3.358,7.5-7.5
			C374.982,180.47,371.625,177.113,367.482,177.113z"/>
	</g>
</g>
<g>
	<g>
		<path d="M367.482,252.108h-49.497c-4.143,0-7.5,3.358-7.5,7.5c0,4.142,3.357,7.5,7.5,7.5h49.497c4.143,0,7.5-3.358,7.5-7.5
			C374.982,255.467,371.625,252.108,367.482,252.108z"/>
	</g>
</g>
<g>
	<g>
		<path d="M101.995,214.611H7.5c-4.142,0-7.5,3.358-7.5,7.5c0,4.142,3.358,7.5,7.5,7.5h94.495c4.142,0,7.5-3.358,7.5-7.5
			C109.495,217.969,106.137,214.611,101.995,214.611z"/>
	</g>
</g>
<g>
	<g>
		<path d="M115.495,177.113H65.997c-4.142,0-7.5,3.358-7.5,7.5c0,4.142,3.358,7.5,7.5,7.5h49.498c4.142,0,7.5-3.358,7.5-7.5
			C122.995,180.47,119.637,177.113,115.495,177.113z"/>
	</g>
</g>
<g>
	<g>
		<path d="M115.495,252.108H65.997c-4.142,0-7.5,3.358-7.5,7.5c0,4.142,3.358,7.5,7.5,7.5h49.498c4.142,0,7.5-3.358,7.5-7.5
			C122.995,255.467,119.637,252.108,115.495,252.108z"/>
	</g>
</g>
</svg>